<?xml version="1.0" standalone="no"?>
<!DOCTYPE svg PUBLIC "-//W3C//DTD SVG 20010904//EN"
 "http://www.w3.org/TR/2001/REC-SVG-20010904/DTD/svg10.dtd">
<svg version="1.0" xmlns="http://www.w3.org/2000/svg"
 width="65.000000pt" height="34.000000pt" viewBox="0 0 65.000000 34.000000"
 preserveAspectRatio="xMidYMid meet">

<g transform="translate(0.000000,34.000000) scale(0.100000,-0.100000)"
fill="#000000" stroke="none">
<path d="M65 308 c-24 -19 -27 -26 -22 -62 4 -30 1 -46 -11 -59 -10 -11 -17
-35 -17 -59 0 -48 31 -78 79 -77 l31 1 -32 9 c-61 18 -63 106 -3 136 16 8 19
13 9 13 -36 0 -41 81 -7 104 12 9 18 16 12 16 -6 0 -24 -10 -39 -22z"/>
<path d="M120 326 c0 -2 7 -7 16 -10 8 -3 12 -2 9 4 -6 10 -25 14 -25 6z"/>
<path d="M137 283 c-12 -11 -8 -23 8 -23 8 0 15 7 15 15 0 16 -12 20 -23 8z"/>
<path d="M266 254 c-3 -9 -6 -31 -6 -49 0 -19 -5 -37 -10 -40 -7 -5 -8 -11 -1
-18 5 -7 11 -28 13 -47 2 -29 7 -35 28 -38 22 -2 23 -1 8 8 -11 7 -18 23 -18
41 0 17 4 28 8 25 4 -2 14 -1 21 4 10 6 8 10 -9 15 -19 6 -21 12 -18 61 3 53
-4 70 -16 38z"/>
<path d="M166 162 c-3 -4 4 -23 15 -42 11 -18 18 -41 16 -52 -3 -11 0 -18 8
-18 35 0 30 48 -9 93 -13 15 -27 24 -30 19z"/>
<path d="M342 138 c-7 -7 -12 -22 -12 -34 0 -38 48 -71 65 -44 3 6 -1 10 -10
10 -23 0 -41 45 -25 65 15 18 0 21 -18 3z"/>
<path d="M478 125 c-15 -33 3 -75 32 -75 20 0 20 1 4 25 -9 14 -14 36 -12 50
7 32 -9 32 -24 0z"/>
<path d="M575 140 c-4 -7 2 -25 14 -41 24 -32 26 -50 9 -68 -11 -10 -9 -12 6
-9 39 7 42 33 9 83 -20 31 -33 43 -38 35z"/>
</g>
</svg>
